<?xml version="1.0" encoding="iso-8859-1"?>
<!-- Uploaded to: SVG Repo, www.svgrepo.com, Generator: SVG Repo Mixer Tools -->
<svg version="1.1" id="Layer_1" xmlns="http://www.w3.org/2000/svg" xmlns:xlink="http://www.w3.org/1999/xlink" 
	 viewBox="0 0 508 508" xml:space="preserve">
<path style="fill:#F4EFEF;" d="M24.8,13.2C24.8,8.8,28,6,32.4,6h376c4.4,0,8.4,2.8,8.4,7.2v456l31.6,32.8h-392
	c-17.6,0-31.6-15.2-31.6-32.8V13.2z"/>
<rect x="64.8" y="46" style="fill:#AEB1B4;" width="312" height="88"/>
<rect x="64.8" y="334" style="fill:#7D8B95;" width="120" height="120"/>
<path style="fill:#E8E3E3;" d="M480.8,437.6v31.6c0,17.6-14.4,32-32,32c-17.6,0-32-14-32-31.6L418,294h54.8c4.4,0,8.4,2.4,8.4,6.8
	L480.8,437.6L480.8,437.6z"/>
<path d="M276.8,180h-212c-2.4,0-4-1.6-4-4s1.6-4,4-4h212c2.4,0,4,1.6,4,4S279.2,180,276.8,180z"/>
<path d="M276.8,220h-212c-2.4,0-4-1.6-4-4s1.6-4,4-4h212c2.4,0,4,1.6,4,4S279.2,220,276.8,220z"/>
<path d="M276.8,260h-212c-2.4,0-4-1.6-4-4s1.6-4,4-4h212c2.4,0,4,1.6,4,4S279.2,260,276.8,260z"/>
<path d="M276.8,300h-212c-2.4,0-4-1.6-4-4s1.6-4,4-4h212c2.4,0,4,1.6,4,4S279.2,300,276.8,300z"/>
<path d="M376.8,340h-148c-2.4,0-4-1.6-4-4s1.6-4,4-4h148c2.4,0,4,1.6,4,4S379.2,340,376.8,340z"/>
<path d="M376.8,380h-148c-2.4,0-4-1.6-4-4s1.6-4,4-4h148c2.4,0,4,1.6,4,4S379.2,380,376.8,380z"/>
<path d="M376.8,420h-148c-2.4,0-4-1.6-4-4s1.6-4,4-4h148c2.4,0,4,1.6,4,4S379.2,420,376.8,420z"/>
<path d="M376.8,460h-148c-2.4,0-4-1.6-4-4s1.6-4,4-4h148c2.4,0,4,1.6,4,4S379.2,460,376.8,460z"/>
<path d="M376.8,180h-64c-2.4,0-4-1.6-4-4s1.6-4,4-4h64c2.4,0,4,1.6,4,4S379.2,180,376.8,180z"/>
<path d="M376.8,220h-64c-2.4,0-4-1.6-4-4s1.6-4,4-4h64c2.4,0,4,1.6,4,4S379.2,220,376.8,220z"/>
<path d="M376.8,260h-64c-2.4,0-4-1.6-4-4s1.6-4,4-4h64c2.4,0,4,1.6,4,4S379.2,260,376.8,260z"/>
<path d="M376.8,300h-64c-2.4,0-4-1.6-4-4s1.6-4,4-4h64c2.4,0,4,1.6,4,4S379.2,300,376.8,300z"/>
<path d="M448.8,508H56.4c-19.6,0-33.6-14-33.6-34.4V9.6c0-6.4,2.8-9.6,9.6-9.6h376c2.8,0,10.4,0,10.4,9.2v283.2
	c0.4-0.4,1.2-0.4,2-0.4h51.6c6.8,0,12.8,5.6,12.8,12l-0.4,165.2c0,20.8-15.6,37.6-35.6,38.8C449.2,508,448.8,508,448.8,508z
	 M418.8,299.6V410l-1.2,60c0,20.8,15.6,30,30,30c16,0,29.2-13.6,29.2-30.8l0.4-165.2c0-2-2.4-4-4.8-4h-51.6
	C420,300,419.2,300,418.8,299.6z M30.8,8c0,0.4,0,0.8,0,1.2v464c0,15.6,10.4,26.4,25.6,26.4h367.2c-8.4-6.4-14-16.4-14-30.4l1.2-60
	V9.2c0-0.4,0-0.8,0-1.2c-0.4,0-0.8,0-2.4,0h-376C31.6,8,31.2,8,30.8,8z"/>
<path d="M374.8,140h-312c-2.4,0-4-1.6-4-4V48c0-2.4,1.6-4,4-4h312c2.4,0,4,1.6,4,4v88C378.8,138.4,377.2,140,374.8,140z M66.8,132
	h304V52h-304V132z"/>
<path d="M182.8,460h-120c-2.4,0-4-1.6-4-4V336c0-2.4,1.6-4,4-4h120c2.4,0,4,1.6,4,4v120C186.8,458.4,185.2,460,182.8,460z M66.8,452
	h112V340h-112V452z"/>
</svg>